<?xml version="1.0" encoding="UTF-8" standalone="no"?>
<!DOCTYPE svg PUBLIC "-//W3C//DTD SVG 1.1//EN" "http://www.w3.org/Graphics/SVG/1.1/DTD/svg11.dtd">
<svg width="100%" height="100%" viewBox="0 0 686 391" version="1.1" xmlns="http://www.w3.org/2000/svg" xmlns:xlink="http://www.w3.org/1999/xlink" xml:space="preserve" xmlns:serif="http://www.serif.com/" style="fill-rule:evenodd;clip-rule:evenodd;stroke-linejoin:round;stroke-miterlimit:2;">
    <g transform="matrix(1,0,0,1,-5987.760737,-1022.971603)">
        <g transform="matrix(1,0,0,1,-0.094488,0)">
            <g id="pill" transform="matrix(33.54222,0,0,33.54222,-37831.969685,-39179.308757)">
                <path d="M1306.408,1204.258C1306.408,1205.291 1306.658,1206.266 1307.158,1207.183C1307.658,1208.099 1308.641,1208.833 1310.108,1209.383C1311.575,1209.933 1313.758,1210.208 1316.658,1210.208C1319.558,1210.208 1321.733,1209.933 1323.183,1209.383C1324.633,1208.833 1325.608,1208.099 1326.108,1207.183C1326.608,1206.266 1326.858,1205.291 1326.858,1204.258C1326.858,1203.191 1326.608,1202.233 1326.108,1201.383C1325.608,1200.533 1324.633,1199.849 1323.183,1199.333C1321.733,1198.816 1319.558,1198.558 1316.658,1198.558C1313.758,1198.558 1311.575,1198.816 1310.108,1199.333C1308.641,1199.849 1307.658,1200.533 1307.158,1201.383C1306.658,1202.233 1306.408,1203.191 1306.408,1204.258Z" style="fill:white;"/>
            </g>
        </g>
    </g>
</svg>
