<?xml version="1.0" encoding="UTF-8" standalone="no"?>
<!DOCTYPE svg PUBLIC "-//W3C//DTD SVG 1.1//EN" "http://www.w3.org/Graphics/SVG/1.1/DTD/svg11.dtd">
<svg width="100%" height="100%" viewBox="0 0 684 142" version="1.1" xmlns="http://www.w3.org/2000/svg" xmlns:xlink="http://www.w3.org/1999/xlink" xml:space="preserve" xmlns:serif="http://www.serif.com/" style="fill-rule:evenodd;clip-rule:evenodd;stroke-linejoin:round;stroke-miterlimit:2;">
    <g transform="matrix(1,0,0,1,-4939.068762,-2999.409449)">
        <g id="Artboard2" transform="matrix(1,0,0,1,11.821088,2730.339748)">
            <rect x="3744.094" y="0" width="3507.874" height="2480.315" style="fill:none;"/>
            <g transform="matrix(0.970213,0,0,1,-44.859722,-3612.655029)">
                <path d="M5158.844,3952.296L5158.844,4023.385L5124.758,4023.385L5124.758,3881.796L5158.844,3881.796L5158.844,3946.685L5224.582,3881.796L5273.276,3881.796L5204.186,3949.933L5204.191,3949.933L5276.397,4023.457L5229.147,4023.457L5158.844,3952.296ZM5432.011,3997.401L5405.229,4023.385L5309.928,4023.385L5283.146,3997.401L5283.146,3907.742L5309.888,3881.796L5396.878,3881.796L5396.878,3881.725L5405.229,3881.725L5432.011,3907.709L5432.011,3915.883L5432.011,3989.299L5432.011,3997.401ZM5319.972,3912.505L5317.537,3914.867L5317.537,3994.149L5319.972,3996.511L5395.905,3996.511L5398.339,3994.149L5398.339,3914.867L5395.905,3912.505L5319.972,3912.505ZM5492.683,3931.331L5492.683,4023.457L5458.316,4023.457L5458.316,3881.868L5492.683,3881.868L5571.282,3973.851L5571.282,3881.725L5606.04,3881.725L5606.04,4023.314L5571.282,4023.314L5492.683,3931.331ZM5667.702,3972.67L5666.485,3973.851L5666.485,4023.314L5632.85,4023.314L5632.85,3907.709L5659.632,3881.725L5666.485,3881.725L5666.485,3881.796L5780.917,3881.797L5749.34,3912.433L5668.92,3912.433L5666.485,3914.796L5666.485,3942.926L5667.702,3944.107L5749.266,3944.107L5749.266,3972.67L5667.702,3972.67ZM5829.441,3881.725L5829.441,4023.314L5794.308,4023.314L5794.308,3881.725L5829.441,3881.725Z"/>
            </g>
        </g>
    </g>
</svg>
