{
  "asset": {
    "generator": "Khronos glTF Blender I/O v1.4.40",
    "version": "2.0"
  },
  "scene": 0,
  "scenes": [
    {
      "name": "Scene",
      "nodes": [0, 1, 2, 3, 4, 5, 6, 7]
    }
  ],
  "nodes": [
    {
      "mesh": 0,
      "name": "standa1"
    },
    {
      "mesh": 1,
      "name": "blockouta1"
    },
    {
      "mesh": 2,
      "name": "waterstanda1"
    },
    {
      "mesh": 3,
      "name": "waterblockouta1"
    },
    {
      "mesh": 4,
      "name": "waterblockoutb1"
    },
    {
      "mesh": 5,
      "name": "waterstandb1"
    },
    {
      "mesh": 6,
      "name": "blockoutb1"
    },
    {
      "mesh": 7,
      "name": "standb1",
      "scale": [-1, 1, -1]
    }
  ],
  "meshes": [
    {
      "name": "Cube.009",
      "primitives": [
        {
          "attributes": {
            "POSITION": 0,
            "NORMAL": 1,
            "TEXCOORD_0": 2
          },
          "indices": 3
        }
      ]
    },
    {
      "name": "Plane.007",
      "primitives": [
        {
          "attributes": {
            "POSITION": 4,
            "NORMAL": 5,
            "TEXCOORD_0": 6
          },
          "indices": 7
        }
      ]
    },
    {
      "name": "Cube.020",
      "primitives": [
        {
          "attributes": {
            "POSITION": 8,
            "NORMAL": 9,
            "TEXCOORD_0": 10
          },
          "indices": 11
        }
      ]
    },
    {
      "name": "Plane.008",
      "primitives": [
        {
          "attributes": {
            "POSITION": 12,
            "NORMAL": 13,
            "TEXCOORD_0": 14
          },
          "indices": 7
        }
      ]
    },
    {
      "name": "Plane.010",
      "primitives": [
        {
          "attributes": {
            "POSITION": 15,
            "NORMAL": 16,
            "TEXCOORD_0": 17
          },
          "indices": 7
        }
      ]
    },
    {
      "name": "Cube.025",
      "primitives": [
        {
          "attributes": {
            "POSITION": 18,
            "NORMAL": 19,
            "TEXCOORD_0": 20
          },
          "indices": 21
        }
      ]
    },
    {
      "name": "Plane.001",
      "primitives": [
        {
          "attributes": {
            "POSITION": 22,
            "NORMAL": 23,
            "TEXCOORD_0": 24
          },
          "indices": 7
        }
      ]
    },
    {
      "name": "Cube.001",
      "primitives": [
        {
          "attributes": {
            "POSITION": 25,
            "NORMAL": 26,
            "TEXCOORD_0": 27
          },
          "indices": 28
        }
      ]
    }
  ],
  "accessors": [
    {
      "bufferView": 0,
      "componentType": 5126,
      "count": 344,
      "max": [0.6369999647140503, 0.8939754366874695, 0.7435457706451416],
      "min": [-0.6370000243186951, -1.0914429426193237, -0.7435457706451416],
      "type": "VEC3"
    },
    {
      "bufferView": 1,
      "componentType": 5126,
      "count": 344,
      "type": "VEC3"
    },
    {
      "bufferView": 2,
      "componentType": 5126,
      "count": 344,
      "type": "VEC2"
    },
    {
      "bufferView": 3,
      "componentType": 5123,
      "count": 516,
      "type": "SCALAR"
    },
    {
      "bufferView": 4,
      "componentType": 5126,
      "count": 8,
      "max": [0.593999981880188, 0.8393892645835876, 0.6206426620483398],
      "min": [-0.593999981880188, -0.7411738038063049, -0.6206427216529846],
      "type": "VEC3"
    },
    {
      "bufferView": 5,
      "componentType": 5126,
      "count": 8,
      "type": "VEC3"
    },
    {
      "bufferView": 6,
      "componentType": 5126,
      "count": 8,
      "type": "VEC2"
    },
    {
      "bufferView": 7,
      "componentType": 5123,
      "count": 12,
      "type": "SCALAR"
    },
    {
      "bufferView": 8,
      "componentType": 5126,
      "count": 8201,
      "max": [0.8062518835067749, 0.8850000500679016, 0.3923951983451843],
      "min": [-0.8062518835067749, -1.370963454246521, -0.39234888553619385],
      "type": "VEC3"
    },
    {
      "bufferView": 9,
      "componentType": 5126,
      "count": 8201,
      "type": "VEC3"
    },
    {
      "bufferView": 10,
      "componentType": 5126,
      "count": 8201,
      "type": "VEC2"
    },
    {
      "bufferView": 11,
      "componentType": 5123,
      "count": 34302,
      "type": "SCALAR"
    },
    {
      "bufferView": 12,
      "componentType": 5126,
      "count": 8,
      "max": [0.593999981880188, 0.8410000205039978, 0.02000003680586815],
      "min": [-0.593999981880188, -0.8410000205039978, -0.020000088959932327],
      "type": "VEC3"
    },
    {
      "bufferView": 13,
      "componentType": 5126,
      "count": 8,
      "type": "VEC3"
    },
    {
      "bufferView": 14,
      "componentType": 5126,
      "count": 8,
      "type": "VEC2"
    },
    {
      "bufferView": 15,
      "componentType": 5126,
      "count": 8,
      "max": [0.7070000171661377, 1, 0.020000044256448746],
      "min": [-0.7070000171661377, -1, -0.02000010386109352],
      "type": "VEC3"
    },
    {
      "bufferView": 16,
      "componentType": 5126,
      "count": 8,
      "type": "VEC3"
    },
    {
      "bufferView": 17,
      "componentType": 5126,
      "count": 8,
      "type": "VEC2"
    },
    {
      "bufferView": 18,
      "componentType": 5126,
      "count": 8177,
      "max": [0.9578841328620911, 1.0514425039291382, 0.46619316935539246],
      "min": [-0.9578841328620911, -1.6288012266159058, -0.46613815426826477],
      "type": "VEC3"
    },
    {
      "bufferView": 19,
      "componentType": 5126,
      "count": 8177,
      "type": "VEC3"
    },
    {
      "bufferView": 20,
      "componentType": 5126,
      "count": 8177,
      "type": "VEC2"
    },
    {
      "bufferView": 21,
      "componentType": 5123,
      "count": 34302,
      "type": "SCALAR"
    },
    {
      "bufferView": 22,
      "componentType": 5126,
      "count": 8,
      "max": [0.7070000171661377, 0.994280219078064, 0.7410234212875366],
      "min": [-0.7070000171661377, -0.8852043151855469, -0.7410234212875366],
      "type": "VEC3"
    },
    {
      "bufferView": 23,
      "componentType": 5126,
      "count": 8,
      "type": "VEC3"
    },
    {
      "bufferView": 24,
      "componentType": 5126,
      "count": 8,
      "type": "VEC2"
    },
    {
      "bufferView": 25,
      "componentType": 5126,
      "count": 344,
      "max": [0.7430000305175781, 1.0388485193252563, 0.8497756719589233],
      "min": [-0.7430000305175781, -1.2370460033416748, -0.8497756719589233],
      "type": "VEC3"
    },
    {
      "bufferView": 26,
      "componentType": 5126,
      "count": 344,
      "type": "VEC3"
    },
    {
      "bufferView": 27,
      "componentType": 5126,
      "count": 344,
      "type": "VEC2"
    },
    {
      "bufferView": 28,
      "componentType": 5123,
      "count": 516,
      "type": "SCALAR"
    }
  ],
  "bufferViews": [
    {
      "buffer": 0,
      "byteLength": 4128,
      "byteOffset": 0
    },
    {
      "buffer": 0,
      "byteLength": 4128,
      "byteOffset": 4128
    },
    {
      "buffer": 0,
      "byteLength": 2752,
      "byteOffset": 8256
    },
    {
      "buffer": 0,
      "byteLength": 1032,
      "byteOffset": 11008
    },
    {
      "buffer": 0,
      "byteLength": 96,
      "byteOffset": 12040
    },
    {
      "buffer": 0,
      "byteLength": 96,
      "byteOffset": 12136
    },
    {
      "buffer": 0,
      "byteLength": 64,
      "byteOffset": 12232
    },
    {
      "buffer": 0,
      "byteLength": 24,
      "byteOffset": 12296
    },
    {
      "buffer": 0,
      "byteLength": 98412,
      "byteOffset": 12320
    },
    {
      "buffer": 0,
      "byteLength": 98412,
      "byteOffset": 110732
    },
    {
      "buffer": 0,
      "byteLength": 65608,
      "byteOffset": 209144
    },
    {
      "buffer": 0,
      "byteLength": 68604,
      "byteOffset": 274752
    },
    {
      "buffer": 0,
      "byteLength": 96,
      "byteOffset": 343356
    },
    {
      "buffer": 0,
      "byteLength": 96,
      "byteOffset": 343452
    },
    {
      "buffer": 0,
      "byteLength": 64,
      "byteOffset": 343548
    },
    {
      "buffer": 0,
      "byteLength": 96,
      "byteOffset": 343612
    },
    {
      "buffer": 0,
      "byteLength": 96,
      "byteOffset": 343708
    },
    {
      "buffer": 0,
      "byteLength": 64,
      "byteOffset": 343804
    },
    {
      "buffer": 0,
      "byteLength": 98124,
      "byteOffset": 343868
    },
    {
      "buffer": 0,
      "byteLength": 98124,
      "byteOffset": 441992
    },
    {
      "buffer": 0,
      "byteLength": 65416,
      "byteOffset": 540116
    },
    {
      "buffer": 0,
      "byteLength": 68604,
      "byteOffset": 605532
    },
    {
      "buffer": 0,
      "byteLength": 96,
      "byteOffset": 674136
    },
    {
      "buffer": 0,
      "byteLength": 96,
      "byteOffset": 674232
    },
    {
      "buffer": 0,
      "byteLength": 64,
      "byteOffset": 674328
    },
    {
      "buffer": 0,
      "byteLength": 4128,
      "byteOffset": 674392
    },
    {
      "buffer": 0,
      "byteLength": 4128,
      "byteOffset": 678520
    },
    {
      "buffer": 0,
      "byteLength": 2752,
      "byteOffset": 682648
    },
    {
      "buffer": 0,
      "byteLength": 1032,
      "byteOffset": 685400
    }
  ],
  "buffers": [
    {
      "byteLength": 686432,
      "uri": "data:application/octet-stream;base64,"
    }
  ]
}
