{
  "asset": {
    "generator": "Khronos glTF Blender I/O v1.4.40",
    "version": "2.0"
  },
  "scene": 0,
  "scenes": [
    {
      "name": "Scene",
      "nodes": [0, 1, 2, 3, 4, 5, 6, 7, 8, 9, 10, 11, 12, 13, 14, 15]
    }
  ],
  "nodes": [
    {
      "mesh": 0,
      "name": "blejt20x30"
    },
    {
      "mesh": 1,
      "name": "canvas20x30"
    },
    {
      "mesh": 2,
      "name": "blejt30x40"
    },
    {
      "mesh": 3,
      "name": "canvas30x40"
    },
    {
      "mesh": 4,
      "name": "blejt35x50"
    },
    {
      "mesh": 5,
      "name": "canvas35x50"
    },
    {
      "mesh": 6,
      "name": "blejt40x60"
    },
    {
      "mesh": 7,
      "name": "canvas40x60"
    },
    {
      "mesh": 8,
      "name": "blejt50x70"
    },
    {
      "mesh": 9,
      "name": "canvas50x70"
    },
    {
      "mesh": 10,
      "name": "blejt60x80"
    },
    {
      "mesh": 11,
      "name": "canvas60x80"
    },
    {
      "mesh": 12,
      "name": "blejt70x100"
    },
    {
      "mesh": 13,
      "name": "canvas70x100"
    },
    {
      "mesh": 14,
      "name": "blejt100x150"
    },
    {
      "mesh": 15,
      "name": "canvas100x150"
    }
  ],
  "meshes": [
    {
      "name": "Cube.008",
      "primitives": [
        {
          "attributes": {
            "POSITION": 0,
            "NORMAL": 1,
            "TEXCOORD_0": 2
          },
          "indices": 3
        }
      ]
    },
    {
      "name": "Plane.002",
      "primitives": [
        {
          "attributes": {
            "POSITION": 4,
            "NORMAL": 5,
            "TEXCOORD_0": 6
          },
          "indices": 7
        }
      ]
    },
    {
      "name": "Cube.003",
      "primitives": [
        {
          "attributes": {
            "POSITION": 8,
            "NORMAL": 9,
            "TEXCOORD_0": 10
          },
          "indices": 11
        }
      ]
    },
    {
      "name": "Plane.003",
      "primitives": [
        {
          "attributes": {
            "POSITION": 12,
            "NORMAL": 13,
            "TEXCOORD_0": 14
          },
          "indices": 15
        }
      ]
    },
    {
      "name": "Cube.005",
      "primitives": [
        {
          "attributes": {
            "POSITION": 16,
            "NORMAL": 17,
            "TEXCOORD_0": 18
          },
          "indices": 19
        }
      ]
    },
    {
      "name": "Plane.004",
      "primitives": [
        {
          "attributes": {
            "POSITION": 20,
            "NORMAL": 21,
            "TEXCOORD_0": 22
          },
          "indices": 15
        }
      ]
    },
    {
      "name": "Cube.013",
      "primitives": [
        {
          "attributes": {
            "POSITION": 23,
            "NORMAL": 24,
            "TEXCOORD_0": 25
          },
          "indices": 26
        }
      ]
    },
    {
      "name": "Plane.005",
      "primitives": [
        {
          "attributes": {
            "POSITION": 27,
            "NORMAL": 28,
            "TEXCOORD_0": 29
          },
          "indices": 15
        }
      ]
    },
    {
      "name": "Cube.018",
      "primitives": [
        {
          "attributes": {
            "POSITION": 30,
            "NORMAL": 31,
            "TEXCOORD_0": 32
          },
          "indices": 33
        }
      ]
    },
    {
      "name": "Plane.006",
      "primitives": [
        {
          "attributes": {
            "POSITION": 34,
            "NORMAL": 35,
            "TEXCOORD_0": 36
          },
          "indices": 15
        }
      ]
    },
    {
      "name": "Cube.022",
      "primitives": [
        {
          "attributes": {
            "POSITION": 37,
            "NORMAL": 38,
            "TEXCOORD_0": 39
          },
          "indices": 40
        }
      ]
    },
    {
      "name": "Plane.007",
      "primitives": [
        {
          "attributes": {
            "POSITION": 41,
            "NORMAL": 42,
            "TEXCOORD_0": 43
          },
          "indices": 15
        }
      ]
    },
    {
      "name": "Cube.026",
      "primitives": [
        {
          "attributes": {
            "POSITION": 44,
            "NORMAL": 45,
            "TEXCOORD_0": 46
          },
          "indices": 47
        }
      ]
    },
    {
      "name": "Plane.008",
      "primitives": [
        {
          "attributes": {
            "POSITION": 48,
            "NORMAL": 49,
            "TEXCOORD_0": 50
          },
          "indices": 15
        }
      ]
    },
    {
      "name": "Cube.029",
      "primitives": [
        {
          "attributes": {
            "POSITION": 51,
            "NORMAL": 52,
            "TEXCOORD_0": 53
          },
          "indices": 54
        }
      ]
    },
    {
      "name": "Plane.009",
      "primitives": [
        {
          "attributes": {
            "POSITION": 55,
            "NORMAL": 56,
            "TEXCOORD_0": 57
          },
          "indices": 15
        }
      ]
    }
  ],
  "accessors": [
    {
      "bufferView": 0,
      "componentType": 5126,
      "count": 388,
      "max": [0.19900161027908325, 0.29850244522094727, 0.019880272448062897],
      "min": [
        -0.19900161027908325, -0.29850244522094727, -0.019880272448062897
      ],
      "type": "VEC3"
    },
    {
      "bufferView": 1,
      "componentType": 5126,
      "count": 388,
      "type": "VEC3"
    },
    {
      "bufferView": 2,
      "componentType": 5126,
      "count": 388,
      "type": "VEC2"
    },
    {
      "bufferView": 3,
      "componentType": 5123,
      "count": 534,
      "type": "SCALAR"
    },
    {
      "bufferView": 4,
      "componentType": 5126,
      "count": 36,
      "max": [0.20000000298023224, 0.30000001192092896, 0.02000001259148121],
      "min": [-0.20000000298023224, -0.30000001192092896, -0.02000001259148121],
      "type": "VEC3"
    },
    {
      "bufferView": 5,
      "componentType": 5126,
      "count": 36,
      "type": "VEC3"
    },
    {
      "bufferView": 6,
      "componentType": 5126,
      "count": 36,
      "type": "VEC2"
    },
    {
      "bufferView": 7,
      "componentType": 5123,
      "count": 54,
      "type": "SCALAR"
    },
    {
      "bufferView": 8,
      "componentType": 5126,
      "count": 388,
      "max": [0.29850244522094727, 0.3980032205581665, 0.019880276173353195],
      "min": [-0.29850244522094727, -0.3980032205581665, -0.019880276173353195],
      "type": "VEC3"
    },
    {
      "bufferView": 9,
      "componentType": 5126,
      "count": 388,
      "type": "VEC3"
    },
    {
      "bufferView": 10,
      "componentType": 5126,
      "count": 388,
      "type": "VEC2"
    },
    {
      "bufferView": 11,
      "componentType": 5123,
      "count": 534,
      "type": "SCALAR"
    },
    {
      "bufferView": 12,
      "componentType": 5126,
      "count": 36,
      "max": [0.30000001192092896, 0.4000000059604645, 0.020000016316771507],
      "min": [-0.30000001192092896, -0.4000000059604645, -0.020000016316771507],
      "type": "VEC3"
    },
    {
      "bufferView": 13,
      "componentType": 5126,
      "count": 36,
      "type": "VEC3"
    },
    {
      "bufferView": 14,
      "componentType": 5126,
      "count": 36,
      "type": "VEC2"
    },
    {
      "bufferView": 15,
      "componentType": 5123,
      "count": 54,
      "type": "SCALAR"
    },
    {
      "bufferView": 16,
      "componentType": 5126,
      "count": 388,
      "max": [0.3482528328895569, 0.4975040555000305, 0.019880281761288643],
      "min": [-0.3482528328895569, -0.4975040555000305, -0.019880281761288643],
      "type": "VEC3"
    },
    {
      "bufferView": 17,
      "componentType": 5126,
      "count": 388,
      "type": "VEC3"
    },
    {
      "bufferView": 18,
      "componentType": 5126,
      "count": 388,
      "type": "VEC2"
    },
    {
      "bufferView": 19,
      "componentType": 5123,
      "count": 534,
      "type": "SCALAR"
    },
    {
      "bufferView": 20,
      "componentType": 5126,
      "count": 36,
      "max": [0.3499999940395355, 0.5, 0.020000021904706955],
      "min": [-0.3499999940395355, -0.5, -0.020000021904706955],
      "type": "VEC3"
    },
    {
      "bufferView": 21,
      "componentType": 5126,
      "count": 36,
      "type": "VEC3"
    },
    {
      "bufferView": 22,
      "componentType": 5126,
      "count": 36,
      "type": "VEC2"
    },
    {
      "bufferView": 23,
      "componentType": 5126,
      "count": 388,
      "max": [0.3980032205581665, 0.5970048904418945, 0.01988028548657894],
      "min": [-0.3980032205581665, -0.5970048904418945, -0.01988028548657894],
      "type": "VEC3"
    },
    {
      "bufferView": 24,
      "componentType": 5126,
      "count": 388,
      "type": "VEC3"
    },
    {
      "bufferView": 25,
      "componentType": 5126,
      "count": 388,
      "type": "VEC2"
    },
    {
      "bufferView": 26,
      "componentType": 5123,
      "count": 534,
      "type": "SCALAR"
    },
    {
      "bufferView": 27,
      "componentType": 5126,
      "count": 36,
      "max": [0.4000000059604645, 0.6000000238418579, 0.020000025629997253],
      "min": [-0.4000000059604645, -0.6000000238418579, -0.020000025629997253],
      "type": "VEC3"
    },
    {
      "bufferView": 28,
      "componentType": 5126,
      "count": 36,
      "type": "VEC3"
    },
    {
      "bufferView": 29,
      "componentType": 5126,
      "count": 36,
      "type": "VEC2"
    },
    {
      "bufferView": 30,
      "componentType": 5126,
      "count": 388,
      "max": [0.4975040555000305, 0.6965056657791138, 0.01988028921186924],
      "min": [-0.4975040555000305, -0.6965056657791138, -0.01988028921186924],
      "type": "VEC3"
    },
    {
      "bufferView": 31,
      "componentType": 5126,
      "count": 388,
      "type": "VEC3"
    },
    {
      "bufferView": 32,
      "componentType": 5126,
      "count": 388,
      "type": "VEC2"
    },
    {
      "bufferView": 33,
      "componentType": 5123,
      "count": 534,
      "type": "SCALAR"
    },
    {
      "bufferView": 34,
      "componentType": 5126,
      "count": 36,
      "max": [0.5, 0.699999988079071, 0.020000029355287552],
      "min": [-0.5, -0.699999988079071, -0.020000029355287552],
      "type": "VEC3"
    },
    {
      "bufferView": 35,
      "componentType": 5126,
      "count": 36,
      "type": "VEC3"
    },
    {
      "bufferView": 36,
      "componentType": 5126,
      "count": 36,
      "type": "VEC2"
    },
    {
      "bufferView": 37,
      "componentType": 5126,
      "count": 388,
      "max": [0.5970048904418945, 0.796006441116333, 0.019880294799804688],
      "min": [-0.5970048904418945, -0.796006441116333, -0.019880294799804688],
      "type": "VEC3"
    },
    {
      "bufferView": 38,
      "componentType": 5126,
      "count": 388,
      "type": "VEC3"
    },
    {
      "bufferView": 39,
      "componentType": 5126,
      "count": 388,
      "type": "VEC2"
    },
    {
      "bufferView": 40,
      "componentType": 5123,
      "count": 534,
      "type": "SCALAR"
    },
    {
      "bufferView": 41,
      "componentType": 5126,
      "count": 36,
      "max": [0.6000000238418579, 0.800000011920929, 0.020000034943223],
      "min": [-0.6000000238418579, -0.800000011920929, -0.020000034943223],
      "type": "VEC3"
    },
    {
      "bufferView": 42,
      "componentType": 5126,
      "count": 36,
      "type": "VEC3"
    },
    {
      "bufferView": 43,
      "componentType": 5126,
      "count": 36,
      "type": "VEC2"
    },
    {
      "bufferView": 44,
      "componentType": 5126,
      "count": 388,
      "max": [0.6965056657791138, 0.995008111000061, 0.019880302250385284],
      "min": [-0.6965056657791138, -0.995008111000061, -0.019880302250385284],
      "type": "VEC3"
    },
    {
      "bufferView": 45,
      "componentType": 5126,
      "count": 388,
      "type": "VEC3"
    },
    {
      "bufferView": 46,
      "componentType": 5126,
      "count": 388,
      "type": "VEC2"
    },
    {
      "bufferView": 47,
      "componentType": 5123,
      "count": 534,
      "type": "SCALAR"
    },
    {
      "bufferView": 48,
      "componentType": 5126,
      "count": 36,
      "max": [0.699999988079071, 1, 0.020000042393803596],
      "min": [-0.699999988079071, -1, -0.020000042393803596],
      "type": "VEC3"
    },
    {
      "bufferView": 49,
      "componentType": 5126,
      "count": 36,
      "type": "VEC3"
    },
    {
      "bufferView": 50,
      "componentType": 5126,
      "count": 36,
      "type": "VEC2"
    },
    {
      "bufferView": 51,
      "componentType": 5126,
      "count": 388,
      "max": [0.995008111000061, 1.4925121068954468, 0.019880324602127075],
      "min": [-0.995008111000061, -1.4925121068954468, -0.019880324602127075],
      "type": "VEC3"
    },
    {
      "bufferView": 52,
      "componentType": 5126,
      "count": 388,
      "type": "VEC3"
    },
    {
      "bufferView": 53,
      "componentType": 5126,
      "count": 388,
      "type": "VEC2"
    },
    {
      "bufferView": 54,
      "componentType": 5123,
      "count": 534,
      "type": "SCALAR"
    },
    {
      "bufferView": 55,
      "componentType": 5126,
      "count": 36,
      "max": [1, 1.5, 0.020000064745545387],
      "min": [-1, -1.5, -0.020000064745545387],
      "type": "VEC3"
    },
    {
      "bufferView": 56,
      "componentType": 5126,
      "count": 36,
      "type": "VEC3"
    },
    {
      "bufferView": 57,
      "componentType": 5126,
      "count": 36,
      "type": "VEC2"
    }
  ],
  "bufferViews": [
    {
      "buffer": 0,
      "byteLength": 4656,
      "byteOffset": 0
    },
    {
      "buffer": 0,
      "byteLength": 4656,
      "byteOffset": 4656
    },
    {
      "buffer": 0,
      "byteLength": 3104,
      "byteOffset": 9312
    },
    {
      "buffer": 0,
      "byteLength": 1068,
      "byteOffset": 12416
    },
    {
      "buffer": 0,
      "byteLength": 432,
      "byteOffset": 13484
    },
    {
      "buffer": 0,
      "byteLength": 432,
      "byteOffset": 13916
    },
    {
      "buffer": 0,
      "byteLength": 288,
      "byteOffset": 14348
    },
    {
      "buffer": 0,
      "byteLength": 108,
      "byteOffset": 14636
    },
    {
      "buffer": 0,
      "byteLength": 4656,
      "byteOffset": 14744
    },
    {
      "buffer": 0,
      "byteLength": 4656,
      "byteOffset": 19400
    },
    {
      "buffer": 0,
      "byteLength": 3104,
      "byteOffset": 24056
    },
    {
      "buffer": 0,
      "byteLength": 1068,
      "byteOffset": 27160
    },
    {
      "buffer": 0,
      "byteLength": 432,
      "byteOffset": 28228
    },
    {
      "buffer": 0,
      "byteLength": 432,
      "byteOffset": 28660
    },
    {
      "buffer": 0,
      "byteLength": 288,
      "byteOffset": 29092
    },
    {
      "buffer": 0,
      "byteLength": 108,
      "byteOffset": 29380
    },
    {
      "buffer": 0,
      "byteLength": 4656,
      "byteOffset": 29488
    },
    {
      "buffer": 0,
      "byteLength": 4656,
      "byteOffset": 34144
    },
    {
      "buffer": 0,
      "byteLength": 3104,
      "byteOffset": 38800
    },
    {
      "buffer": 0,
      "byteLength": 1068,
      "byteOffset": 41904
    },
    {
      "buffer": 0,
      "byteLength": 432,
      "byteOffset": 42972
    },
    {
      "buffer": 0,
      "byteLength": 432,
      "byteOffset": 43404
    },
    {
      "buffer": 0,
      "byteLength": 288,
      "byteOffset": 43836
    },
    {
      "buffer": 0,
      "byteLength": 4656,
      "byteOffset": 44124
    },
    {
      "buffer": 0,
      "byteLength": 4656,
      "byteOffset": 48780
    },
    {
      "buffer": 0,
      "byteLength": 3104,
      "byteOffset": 53436
    },
    {
      "buffer": 0,
      "byteLength": 1068,
      "byteOffset": 56540
    },
    {
      "buffer": 0,
      "byteLength": 432,
      "byteOffset": 57608
    },
    {
      "buffer": 0,
      "byteLength": 432,
      "byteOffset": 58040
    },
    {
      "buffer": 0,
      "byteLength": 288,
      "byteOffset": 58472
    },
    {
      "buffer": 0,
      "byteLength": 4656,
      "byteOffset": 58760
    },
    {
      "buffer": 0,
      "byteLength": 4656,
      "byteOffset": 63416
    },
    {
      "buffer": 0,
      "byteLength": 3104,
      "byteOffset": 68072
    },
    {
      "buffer": 0,
      "byteLength": 1068,
      "byteOffset": 71176
    },
    {
      "buffer": 0,
      "byteLength": 432,
      "byteOffset": 72244
    },
    {
      "buffer": 0,
      "byteLength": 432,
      "byteOffset": 72676
    },
    {
      "buffer": 0,
      "byteLength": 288,
      "byteOffset": 73108
    },
    {
      "buffer": 0,
      "byteLength": 4656,
      "byteOffset": 73396
    },
    {
      "buffer": 0,
      "byteLength": 4656,
      "byteOffset": 78052
    },
    {
      "buffer": 0,
      "byteLength": 3104,
      "byteOffset": 82708
    },
    {
      "buffer": 0,
      "byteLength": 1068,
      "byteOffset": 85812
    },
    {
      "buffer": 0,
      "byteLength": 432,
      "byteOffset": 86880
    },
    {
      "buffer": 0,
      "byteLength": 432,
      "byteOffset": 87312
    },
    {
      "buffer": 0,
      "byteLength": 288,
      "byteOffset": 87744
    },
    {
      "buffer": 0,
      "byteLength": 4656,
      "byteOffset": 88032
    },
    {
      "buffer": 0,
      "byteLength": 4656,
      "byteOffset": 92688
    },
    {
      "buffer": 0,
      "byteLength": 3104,
      "byteOffset": 97344
    },
    {
      "buffer": 0,
      "byteLength": 1068,
      "byteOffset": 100448
    },
    {
      "buffer": 0,
      "byteLength": 432,
      "byteOffset": 101516
    },
    {
      "buffer": 0,
      "byteLength": 432,
      "byteOffset": 101948
    },
    {
      "buffer": 0,
      "byteLength": 288,
      "byteOffset": 102380
    },
    {
      "buffer": 0,
      "byteLength": 4656,
      "byteOffset": 102668
    },
    {
      "buffer": 0,
      "byteLength": 4656,
      "byteOffset": 107324
    },
    {
      "buffer": 0,
      "byteLength": 3104,
      "byteOffset": 111980
    },
    {
      "buffer": 0,
      "byteLength": 1068,
      "byteOffset": 115084
    },
    {
      "buffer": 0,
      "byteLength": 432,
      "byteOffset": 116152
    },
    {
      "buffer": 0,
      "byteLength": 432,
      "byteOffset": 116584
    },
    {
      "buffer": 0,
      "byteLength": 288,
      "byteOffset": 117016
    }
  ],
  "buffers": [
    {
      "byteLength": 117304,
      "uri": "data:application/octet-stream;base64,"
    }
  ]
}
