{
  "asset": {
    "generator": "Khronos glTF Blender I/O v1.4.40",
    "version": "2.0"
  },
  "scene": 0,
  "scenes": [
    {
      "name": "Scene",
      "nodes": [0, 1]
    }
  ],
  "nodes": [
    {
      "mesh": 0,
      "name": "cup"
    },
    {
      "mesh": 1,
      "name": "plane"
    }
  ],
  "meshes": [
    {
      "name": "Cylinder",
      "primitives": [
        {
          "attributes": {
            "POSITION": 0,
            "NORMAL": 1,
            "TEXCOORD_0": 2
          },
          "indices": 3
        }
      ]
    },
    {
      "name": "Cylinder.002",
      "primitives": [
        {
          "attributes": {
            "POSITION": 4,
            "NORMAL": 5,
            "TEXCOORD_0": 6
          },
          "indices": 7
        }
      ]
    }
  ],
  "accessors": [
    {
      "bufferView": 0,
      "componentType": 5126,
      "count": 874,
      "max": [0.8199999928474426, 0.949999988079071, 0.8199999928474426],
      "min": [-1.443739891052246, -0.949999988079071, -0.8199999928474426],
      "type": "VEC3"
    },
    {
      "bufferView": 1,
      "componentType": 5126,
      "count": 874,
      "type": "VEC3"
    },
    {
      "bufferView": 2,
      "componentType": 5126,
      "count": 874,
      "type": "VEC2"
    },
    {
      "bufferView": 3,
      "componentType": 5123,
      "count": 3264,
      "type": "SCALAR"
    },
    {
      "bufferView": 4,
      "componentType": 5126,
      "count": 62,
      "max": [0.8199999928474426, 0.9024999737739563, 0.8199999928474426],
      "min": [-0.8042440414428711, -0.9024999737739563, -0.8199999928474426],
      "type": "VEC3"
    },
    {
      "bufferView": 5,
      "componentType": 5126,
      "count": 62,
      "type": "VEC3"
    },
    {
      "bufferView": 6,
      "componentType": 5126,
      "count": 62,
      "type": "VEC2"
    },
    {
      "bufferView": 7,
      "componentType": 5123,
      "count": 180,
      "type": "SCALAR"
    }
  ],
  "bufferViews": [
    {
      "buffer": 0,
      "byteLength": 10488,
      "byteOffset": 0
    },
    {
      "buffer": 0,
      "byteLength": 10488,
      "byteOffset": 10488
    },
    {
      "buffer": 0,
      "byteLength": 6992,
      "byteOffset": 20976
    },
    {
      "buffer": 0,
      "byteLength": 6528,
      "byteOffset": 27968
    },
    {
      "buffer": 0,
      "byteLength": 744,
      "byteOffset": 34496
    },
    {
      "buffer": 0,
      "byteLength": 744,
      "byteOffset": 35240
    },
    {
      "buffer": 0,
      "byteLength": 496,
      "byteOffset": 35984
    },
    {
      "buffer": 0,
      "byteLength": 360,
      "byteOffset": 36480
    }
  ],
  "buffers": [
    {
      "byteLength": 36840,
      "uri": "data:application/octet-stream;base64,"
    }
  ]
}
