{
  "asset": {
    "generator": "Khronos glTF Blender I/O v1.4.40",
    "version": "2.0"
  },
  "scene": 0,
  "scenes": [
    {
      "name": "Scene",
      "nodes": [0, 1, 2, 3, 4, 5]
    }
  ],
  "nodes": [
    {
      "mesh": 0,
      "name": "pin25"
    },
    {
      "mesh": 1,
      "name": "pin25backside"
    },
    {
      "mesh": 2,
      "name": "pin37"
    },
    {
      "mesh": 3,
      "name": "pin37backside"
    },
    {
      "mesh": 4,
      "name": "pin56"
    },
    {
      "mesh": 5,
      "name": "pin56backside"
    }
  ],
  "meshes": [
    {
      "name": "Sphere.002",
      "primitives": [
        {
          "attributes": {
            "POSITION": 0,
            "NORMAL": 1,
            "TEXCOORD_0": 2
          },
          "indices": 3
        }
      ]
    },
    {
      "name": "Sphere.008",
      "primitives": [
        {
          "attributes": {
            "POSITION": 4,
            "NORMAL": 5,
            "TEXCOORD_0": 6
          },
          "indices": 7
        }
      ]
    },
    {
      "name": "Sphere.001",
      "primitives": [
        {
          "attributes": {
            "POSITION": 8,
            "NORMAL": 9,
            "TEXCOORD_0": 10
          },
          "indices": 3
        }
      ]
    },
    {
      "name": "Sphere.004",
      "primitives": [
        {
          "attributes": {
            "POSITION": 11,
            "NORMAL": 12,
            "TEXCOORD_0": 13
          },
          "indices": 7
        }
      ]
    },
    {
      "name": "Sphere.005",
      "primitives": [
        {
          "attributes": {
            "POSITION": 14,
            "NORMAL": 15,
            "TEXCOORD_0": 16
          },
          "indices": 17
        }
      ]
    },
    {
      "name": "Sphere.010",
      "primitives": [
        {
          "attributes": {
            "POSITION": 18,
            "NORMAL": 19,
            "TEXCOORD_0": 20
          },
          "indices": 7
        }
      ]
    }
  ],
  "accessors": [
    {
      "bufferView": 0,
      "componentType": 5126,
      "count": 1665,
      "max": [0.024680783972144127, 0.02468077652156353, 0.003860429860651493],
      "min": [
        -0.02468077652156353, -0.024680787697434425, -0.002977709285914898
      ],
      "type": "VEC3"
    },
    {
      "bufferView": 1,
      "componentType": 5126,
      "count": 1665,
      "type": "VEC3"
    },
    {
      "bufferView": 2,
      "componentType": 5126,
      "count": 1665,
      "type": "VEC2"
    },
    {
      "bufferView": 3,
      "componentType": 5123,
      "count": 9792,
      "type": "SCALAR"
    },
    {
      "bufferView": 4,
      "componentType": 5126,
      "count": 32,
      "max": [
        0.023670554161071777, 0.023765480145812035, -0.001852850429713726
      ],
      "min": [
        -0.02368839643895626, -0.023593463003635406, -0.001852852525189519
      ],
      "type": "VEC3"
    },
    {
      "bufferView": 5,
      "componentType": 5126,
      "count": 32,
      "type": "VEC3"
    },
    {
      "bufferView": 6,
      "componentType": 5126,
      "count": 32,
      "type": "VEC2"
    },
    {
      "bufferView": 7,
      "componentType": 5123,
      "count": 90,
      "type": "SCALAR"
    },
    {
      "bufferView": 8,
      "componentType": 5126,
      "count": 1665,
      "max": [0.036105453968048096, 0.0361054427921772, 0.006330147385597229],
      "min": [
        -0.0361054427921772, -0.036105457693338394, -0.003673347644507885
      ],
      "type": "VEC3"
    },
    {
      "bufferView": 9,
      "componentType": 5126,
      "count": 1665,
      "type": "VEC3"
    },
    {
      "bufferView": 10,
      "componentType": 5126,
      "count": 1665,
      "type": "VEC2"
    },
    {
      "bufferView": 11,
      "componentType": 5126,
      "count": 32,
      "max": [0.03306732326745987, 0.03319993615150452, -0.00339974882081151],
      "min": [
        -0.03309224918484688, -0.032959628850221634, -0.003399751614779234
      ],
      "type": "VEC3"
    },
    {
      "bufferView": 12,
      "componentType": 5126,
      "count": 32,
      "type": "VEC3"
    },
    {
      "bufferView": 13,
      "componentType": 5126,
      "count": 32,
      "type": "VEC2"
    },
    {
      "bufferView": 14,
      "componentType": 5126,
      "count": 1345,
      "max": [0.05548145994544029, 0.0554814375936985, 0.010518738068640232],
      "min": [
        -0.0554814375936985, -0.05548146739602089, -0.0038917730562388897
      ],
      "type": "VEC3"
    },
    {
      "bufferView": 15,
      "componentType": 5126,
      "count": 1345,
      "type": "VEC3"
    },
    {
      "bufferView": 16,
      "componentType": 5126,
      "count": 1345,
      "type": "VEC2"
    },
    {
      "bufferView": 17,
      "componentType": 5123,
      "count": 7872,
      "type": "SCALAR"
    },
    {
      "bufferView": 18,
      "componentType": 5126,
      "count": 32,
      "max": [
        0.05321050062775612, 0.053423892706632614, -0.0035166004672646523
      ],
      "min": [
        -0.05325061082839966, -0.05303720384836197, -0.0035166051238775253
      ],
      "type": "VEC3"
    },
    {
      "bufferView": 19,
      "componentType": 5126,
      "count": 32,
      "type": "VEC3"
    },
    {
      "bufferView": 20,
      "componentType": 5126,
      "count": 32,
      "type": "VEC2"
    }
  ],
  "bufferViews": [
    {
      "buffer": 0,
      "byteLength": 19980,
      "byteOffset": 0
    },
    {
      "buffer": 0,
      "byteLength": 19980,
      "byteOffset": 19980
    },
    {
      "buffer": 0,
      "byteLength": 13320,
      "byteOffset": 39960
    },
    {
      "buffer": 0,
      "byteLength": 19584,
      "byteOffset": 53280
    },
    {
      "buffer": 0,
      "byteLength": 384,
      "byteOffset": 72864
    },
    {
      "buffer": 0,
      "byteLength": 384,
      "byteOffset": 73248
    },
    {
      "buffer": 0,
      "byteLength": 256,
      "byteOffset": 73632
    },
    {
      "buffer": 0,
      "byteLength": 180,
      "byteOffset": 73888
    },
    {
      "buffer": 0,
      "byteLength": 19980,
      "byteOffset": 74068
    },
    {
      "buffer": 0,
      "byteLength": 19980,
      "byteOffset": 94048
    },
    {
      "buffer": 0,
      "byteLength": 13320,
      "byteOffset": 114028
    },
    {
      "buffer": 0,
      "byteLength": 384,
      "byteOffset": 127348
    },
    {
      "buffer": 0,
      "byteLength": 384,
      "byteOffset": 127732
    },
    {
      "buffer": 0,
      "byteLength": 256,
      "byteOffset": 128116
    },
    {
      "buffer": 0,
      "byteLength": 16140,
      "byteOffset": 128372
    },
    {
      "buffer": 0,
      "byteLength": 16140,
      "byteOffset": 144512
    },
    {
      "buffer": 0,
      "byteLength": 10760,
      "byteOffset": 160652
    },
    {
      "buffer": 0,
      "byteLength": 15744,
      "byteOffset": 171412
    },
    {
      "buffer": 0,
      "byteLength": 384,
      "byteOffset": 187156
    },
    {
      "buffer": 0,
      "byteLength": 384,
      "byteOffset": 187540
    },
    {
      "buffer": 0,
      "byteLength": 256,
      "byteOffset": 187924
    }
  ],
  "buffers": [
    {
      "byteLength": 188180,
      "uri": "data:application/octet-stream;base64,"
    }
  ]
}
