{
  "asset": {
    "generator": "Khronos glTF Blender I/O v1.4.40",
    "version": "2.0"
  },
  "scene": 0,
  "scenes": [
    {
      "name": "Scene",
      "nodes": [0, 1, 2, 3, 4, 5, 6, 7]
    }
  ],
  "nodes": [
    {
      "mesh": 0,
      "name": "blockout85x200"
    },
    {
      "mesh": 1,
      "name": "statyw85x200"
    },
    {
      "mesh": 2,
      "name": "blockout100x200"
    },
    {
      "mesh": 3,
      "name": "statyw100x200"
    },
    {
      "mesh": 4,
      "name": "blockout120x200"
    },
    {
      "mesh": 5,
      "name": "statyw120x200"
    },
    {
      "mesh": 6,
      "name": "blockout150x200"
    },
    {
      "mesh": 7,
      "name": "statyw150x200"
    }
  ],
  "meshes": [
    {
      "name": "Plane",
      "primitives": [
        {
          "attributes": {
            "POSITION": 0,
            "NORMAL": 1,
            "TEXCOORD_0": 2
          },
          "indices": 3
        }
      ]
    },
    {
      "name": "Cube.001",
      "primitives": [
        {
          "attributes": {
            "POSITION": 4,
            "NORMAL": 5,
            "TEXCOORD_0": 6
          },
          "indices": 7
        }
      ]
    },
    {
      "name": "Plane.001",
      "primitives": [
        {
          "attributes": {
            "POSITION": 8,
            "NORMAL": 9,
            "TEXCOORD_0": 10
          },
          "indices": 3
        }
      ]
    },
    {
      "name": "Cube.005",
      "primitives": [
        {
          "attributes": {
            "POSITION": 11,
            "NORMAL": 12,
            "TEXCOORD_0": 13
          },
          "indices": 14
        }
      ]
    },
    {
      "name": "Plane.002",
      "primitives": [
        {
          "attributes": {
            "POSITION": 15,
            "NORMAL": 16,
            "TEXCOORD_0": 17
          },
          "indices": 3
        }
      ]
    },
    {
      "name": "Cube.009",
      "primitives": [
        {
          "attributes": {
            "POSITION": 18,
            "NORMAL": 19,
            "TEXCOORD_0": 20
          },
          "indices": 21
        }
      ]
    },
    {
      "name": "Plane.003",
      "primitives": [
        {
          "attributes": {
            "POSITION": 22,
            "NORMAL": 23,
            "TEXCOORD_0": 24
          },
          "indices": 3
        }
      ]
    },
    {
      "name": "Cube.015",
      "primitives": [
        {
          "attributes": {
            "POSITION": 25,
            "NORMAL": 26,
            "TEXCOORD_0": 27
          },
          "indices": 28
        }
      ]
    }
  ],
  "accessors": [
    {
      "bufferView": 0,
      "componentType": 5126,
      "count": 8,
      "max": [0.8500000238418579, 2, 0.05186355486512184],
      "min": [-0.8500000238418579, -2.0999999046325684, 8.742277657347586e-8],
      "type": "VEC3"
    },
    {
      "bufferView": 1,
      "componentType": 5126,
      "count": 8,
      "type": "VEC3"
    },
    {
      "bufferView": 2,
      "componentType": 5126,
      "count": 8,
      "type": "VEC2"
    },
    {
      "bufferView": 3,
      "componentType": 5123,
      "count": 12,
      "type": "SCALAR"
    },
    {
      "bufferView": 4,
      "componentType": 5126,
      "count": 415,
      "max": [0.8499999046325684, 2.0278353691101074, 0.35002943873405457],
      "min": [-0.8499999046325684, -2.127586603164673, -0.19393718242645264],
      "type": "VEC3"
    },
    {
      "bufferView": 5,
      "componentType": 5126,
      "count": 415,
      "type": "VEC3"
    },
    {
      "bufferView": 6,
      "componentType": 5126,
      "count": 415,
      "type": "VEC2"
    },
    {
      "bufferView": 7,
      "componentType": 5123,
      "count": 1194,
      "type": "SCALAR"
    },
    {
      "bufferView": 8,
      "componentType": 5126,
      "count": 8,
      "max": [1, 2, 0.05186355486512184],
      "min": [-1, -2.0999999046325684, 8.742277657347586e-8],
      "type": "VEC3"
    },
    {
      "bufferView": 9,
      "componentType": 5126,
      "count": 8,
      "type": "VEC3"
    },
    {
      "bufferView": 10,
      "componentType": 5126,
      "count": 8,
      "type": "VEC2"
    },
    {
      "bufferView": 11,
      "componentType": 5126,
      "count": 417,
      "max": [1, 2.027839183807373, 0.3500250577926636],
      "min": [-1, -2.1275835037231445, -0.19394156336784363],
      "type": "VEC3"
    },
    {
      "bufferView": 12,
      "componentType": 5126,
      "count": 417,
      "type": "VEC3"
    },
    {
      "bufferView": 13,
      "componentType": 5126,
      "count": 417,
      "type": "VEC2"
    },
    {
      "bufferView": 14,
      "componentType": 5123,
      "count": 1194,
      "type": "SCALAR"
    },
    {
      "bufferView": 15,
      "componentType": 5126,
      "count": 8,
      "max": [1.2000000476837158, 2, 0.05186355486512184],
      "min": [-1.2000000476837158, -2.0999999046325684, 8.742277657347586e-8],
      "type": "VEC3"
    },
    {
      "bufferView": 16,
      "componentType": 5126,
      "count": 8,
      "type": "VEC3"
    },
    {
      "bufferView": 17,
      "componentType": 5126,
      "count": 8,
      "type": "VEC2"
    },
    {
      "bufferView": 18,
      "componentType": 5126,
      "count": 411,
      "max": [1.1999999284744263, 2.0278353691101074, 0.3500252068042755],
      "min": [-1.1999999284744263, -2.127586841583252, -0.1939416229724884],
      "type": "VEC3"
    },
    {
      "bufferView": 19,
      "componentType": 5126,
      "count": 411,
      "type": "VEC3"
    },
    {
      "bufferView": 20,
      "componentType": 5126,
      "count": 411,
      "type": "VEC2"
    },
    {
      "bufferView": 21,
      "componentType": 5123,
      "count": 1194,
      "type": "SCALAR"
    },
    {
      "bufferView": 22,
      "componentType": 5126,
      "count": 8,
      "max": [1.5, 2, 0.05186355486512184],
      "min": [-1.5, -2.0999999046325684, 8.742277657347586e-8],
      "type": "VEC3"
    },
    {
      "bufferView": 23,
      "componentType": 5126,
      "count": 8,
      "type": "VEC3"
    },
    {
      "bufferView": 24,
      "componentType": 5126,
      "count": 8,
      "type": "VEC2"
    },
    {
      "bufferView": 25,
      "componentType": 5126,
      "count": 411,
      "max": [1.5, 2.0278356075286865, 0.35002630949020386],
      "min": [-1.5, -2.127586841583252, -0.19394028186798096],
      "type": "VEC3"
    },
    {
      "bufferView": 26,
      "componentType": 5126,
      "count": 411,
      "type": "VEC3"
    },
    {
      "bufferView": 27,
      "componentType": 5126,
      "count": 411,
      "type": "VEC2"
    },
    {
      "bufferView": 28,
      "componentType": 5123,
      "count": 1194,
      "type": "SCALAR"
    }
  ],
  "bufferViews": [
    {
      "buffer": 0,
      "byteLength": 96,
      "byteOffset": 0
    },
    {
      "buffer": 0,
      "byteLength": 96,
      "byteOffset": 96
    },
    {
      "buffer": 0,
      "byteLength": 64,
      "byteOffset": 192
    },
    {
      "buffer": 0,
      "byteLength": 24,
      "byteOffset": 256
    },
    {
      "buffer": 0,
      "byteLength": 4980,
      "byteOffset": 280
    },
    {
      "buffer": 0,
      "byteLength": 4980,
      "byteOffset": 5260
    },
    {
      "buffer": 0,
      "byteLength": 3320,
      "byteOffset": 10240
    },
    {
      "buffer": 0,
      "byteLength": 2388,
      "byteOffset": 13560
    },
    {
      "buffer": 0,
      "byteLength": 96,
      "byteOffset": 15948
    },
    {
      "buffer": 0,
      "byteLength": 96,
      "byteOffset": 16044
    },
    {
      "buffer": 0,
      "byteLength": 64,
      "byteOffset": 16140
    },
    {
      "buffer": 0,
      "byteLength": 5004,
      "byteOffset": 16204
    },
    {
      "buffer": 0,
      "byteLength": 5004,
      "byteOffset": 21208
    },
    {
      "buffer": 0,
      "byteLength": 3336,
      "byteOffset": 26212
    },
    {
      "buffer": 0,
      "byteLength": 2388,
      "byteOffset": 29548
    },
    {
      "buffer": 0,
      "byteLength": 96,
      "byteOffset": 31936
    },
    {
      "buffer": 0,
      "byteLength": 96,
      "byteOffset": 32032
    },
    {
      "buffer": 0,
      "byteLength": 64,
      "byteOffset": 32128
    },
    {
      "buffer": 0,
      "byteLength": 4932,
      "byteOffset": 32192
    },
    {
      "buffer": 0,
      "byteLength": 4932,
      "byteOffset": 37124
    },
    {
      "buffer": 0,
      "byteLength": 3288,
      "byteOffset": 42056
    },
    {
      "buffer": 0,
      "byteLength": 2388,
      "byteOffset": 45344
    },
    {
      "buffer": 0,
      "byteLength": 96,
      "byteOffset": 47732
    },
    {
      "buffer": 0,
      "byteLength": 96,
      "byteOffset": 47828
    },
    {
      "buffer": 0,
      "byteLength": 64,
      "byteOffset": 47924
    },
    {
      "buffer": 0,
      "byteLength": 4932,
      "byteOffset": 47988
    },
    {
      "buffer": 0,
      "byteLength": 4932,
      "byteOffset": 52920
    },
    {
      "buffer": 0,
      "byteLength": 3288,
      "byteOffset": 57852
    },
    {
      "buffer": 0,
      "byteLength": 2388,
      "byteOffset": 61140
    }
  ],
  "buffers": [
    {
      "byteLength": 63528,
      "uri": "data:application/octet-stream;base64,"
    }
  ]
}
