{
  "asset": {
    "generator": "Khronos glTF Blender I/O v1.4.40",
    "version": "2.0"
  },
  "scene": 0,
  "scenes": [
    {
      "name": "Scene",
      "nodes": [0, 1, 2, 3, 4, 5, 6, 7]
    }
  ],
  "nodes": [
    {
      "mesh": 0,
      "name": "blockout85x200"
    },
    {
      "mesh": 1,
      "name": "statyw85x200"
    },
    {
      "mesh": 2,
      "name": "blockout100x200"
    },
    {
      "mesh": 3,
      "name": "statyw100x200"
    },
    {
      "mesh": 4,
      "name": "blockout120x200"
    },
    {
      "mesh": 5,
      "name": "statyw120x200"
    },
    {
      "mesh": 6,
      "name": "blockout150x200"
    },
    {
      "mesh": 7,
      "name": "statyw150x200"
    }
  ],
  "meshes": [
    {
      "name": "Plane.012",
      "primitives": [
        {
          "attributes": {
            "POSITION": 0,
            "NORMAL": 1,
            "TEXCOORD_0": 2
          },
          "indices": 3
        }
      ]
    },
    {
      "name": "Cube.016",
      "primitives": [
        {
          "attributes": {
            "POSITION": 4,
            "NORMAL": 5,
            "TEXCOORD_0": 6
          },
          "indices": 7
        }
      ]
    },
    {
      "name": "Plane.013",
      "primitives": [
        {
          "attributes": {
            "POSITION": 8,
            "NORMAL": 9,
            "TEXCOORD_0": 10
          },
          "indices": 3
        }
      ]
    },
    {
      "name": "Cube.017",
      "primitives": [
        {
          "attributes": {
            "POSITION": 11,
            "NORMAL": 12,
            "TEXCOORD_0": 13
          },
          "indices": 14
        }
      ]
    },
    {
      "name": "Plane.014",
      "primitives": [
        {
          "attributes": {
            "POSITION": 15,
            "NORMAL": 16,
            "TEXCOORD_0": 17
          },
          "indices": 3
        }
      ]
    },
    {
      "name": "Cube.018",
      "primitives": [
        {
          "attributes": {
            "POSITION": 18,
            "NORMAL": 19,
            "TEXCOORD_0": 20
          },
          "indices": 21
        }
      ]
    },
    {
      "name": "Plane.015",
      "primitives": [
        {
          "attributes": {
            "POSITION": 22,
            "NORMAL": 23,
            "TEXCOORD_0": 24
          },
          "indices": 3
        }
      ]
    },
    {
      "name": "Cube.019",
      "primitives": [
        {
          "attributes": {
            "POSITION": 25,
            "NORMAL": 26,
            "TEXCOORD_0": 27
          },
          "indices": 28
        }
      ]
    }
  ],
  "accessors": [
    {
      "bufferView": 0,
      "componentType": 5126,
      "count": 8,
      "max": [0.8500000238418579, 2, 0.05186355486512184],
      "min": [-0.8500000238418579, -2.0999999046325684, 8.742277657347586e-8],
      "type": "VEC3"
    },
    {
      "bufferView": 1,
      "componentType": 5126,
      "count": 8,
      "type": "VEC3"
    },
    {
      "bufferView": 2,
      "componentType": 5126,
      "count": 8,
      "type": "VEC2"
    },
    {
      "bufferView": 3,
      "componentType": 5123,
      "count": 12,
      "type": "SCALAR"
    },
    {
      "bufferView": 4,
      "componentType": 5126,
      "count": 374,
      "max": [0.8499998450279236, 2.0278353691101074, 0.15000000596046448],
      "min": [-0.8499998450279236, -2.1249992847442627, -0.14231154322624207],
      "type": "VEC3"
    },
    {
      "bufferView": 5,
      "componentType": 5126,
      "count": 374,
      "type": "VEC3"
    },
    {
      "bufferView": 6,
      "componentType": 5126,
      "count": 374,
      "type": "VEC2"
    },
    {
      "bufferView": 7,
      "componentType": 5123,
      "count": 1134,
      "type": "SCALAR"
    },
    {
      "bufferView": 8,
      "componentType": 5126,
      "count": 8,
      "max": [1, 2, 0.05186355486512184],
      "min": [-1, -2.0999999046325684, 8.742277657347586e-8],
      "type": "VEC3"
    },
    {
      "bufferView": 9,
      "componentType": 5126,
      "count": 8,
      "type": "VEC3"
    },
    {
      "bufferView": 10,
      "componentType": 5126,
      "count": 8,
      "type": "VEC2"
    },
    {
      "bufferView": 11,
      "componentType": 5126,
      "count": 368,
      "max": [0.9999998807907104, 2.0278353691101074, 0.14999565482139587],
      "min": [-0.9999998807907104, -2.124999761581421, -0.14231592416763306],
      "type": "VEC3"
    },
    {
      "bufferView": 12,
      "componentType": 5126,
      "count": 368,
      "type": "VEC3"
    },
    {
      "bufferView": 13,
      "componentType": 5126,
      "count": 368,
      "type": "VEC2"
    },
    {
      "bufferView": 14,
      "componentType": 5123,
      "count": 1134,
      "type": "SCALAR"
    },
    {
      "bufferView": 15,
      "componentType": 5126,
      "count": 8,
      "max": [1.2000000476837158, 2, 0.05186355486512184],
      "min": [-1.2000000476837158, -2.0999999046325684, 8.742277657347586e-8],
      "type": "VEC3"
    },
    {
      "bufferView": 16,
      "componentType": 5126,
      "count": 8,
      "type": "VEC3"
    },
    {
      "bufferView": 17,
      "componentType": 5126,
      "count": 8,
      "type": "VEC2"
    },
    {
      "bufferView": 18,
      "componentType": 5126,
      "count": 372,
      "max": [1.1999998092651367, 2.0278353691101074, 0.14999571442604065],
      "min": [-1.1999998092651367, -2.1249992847442627, -0.1423158347606659],
      "type": "VEC3"
    },
    {
      "bufferView": 19,
      "componentType": 5126,
      "count": 372,
      "type": "VEC3"
    },
    {
      "bufferView": 20,
      "componentType": 5126,
      "count": 372,
      "type": "VEC2"
    },
    {
      "bufferView": 21,
      "componentType": 5123,
      "count": 1134,
      "type": "SCALAR"
    },
    {
      "bufferView": 22,
      "componentType": 5126,
      "count": 8,
      "max": [1.5, 2, 0.05186355486512184],
      "min": [-1.5, -2.0999999046325684, 8.742277657347586e-8],
      "type": "VEC3"
    },
    {
      "bufferView": 23,
      "componentType": 5126,
      "count": 8,
      "type": "VEC3"
    },
    {
      "bufferView": 24,
      "componentType": 5126,
      "count": 8,
      "type": "VEC2"
    },
    {
      "bufferView": 25,
      "componentType": 5126,
      "count": 374,
      "max": [1.499999761581421, 2.0278356075286865, 0.14999690651893616],
      "min": [-1.499999761581421, -2.124999523162842, -0.14231465756893158],
      "type": "VEC3"
    },
    {
      "bufferView": 26,
      "componentType": 5126,
      "count": 374,
      "type": "VEC3"
    },
    {
      "bufferView": 27,
      "componentType": 5126,
      "count": 374,
      "type": "VEC2"
    },
    {
      "bufferView": 28,
      "componentType": 5123,
      "count": 1134,
      "type": "SCALAR"
    }
  ],
  "bufferViews": [
    {
      "buffer": 0,
      "byteLength": 96,
      "byteOffset": 0
    },
    {
      "buffer": 0,
      "byteLength": 96,
      "byteOffset": 96
    },
    {
      "buffer": 0,
      "byteLength": 64,
      "byteOffset": 192
    },
    {
      "buffer": 0,
      "byteLength": 24,
      "byteOffset": 256
    },
    {
      "buffer": 0,
      "byteLength": 4488,
      "byteOffset": 280
    },
    {
      "buffer": 0,
      "byteLength": 4488,
      "byteOffset": 4768
    },
    {
      "buffer": 0,
      "byteLength": 2992,
      "byteOffset": 9256
    },
    {
      "buffer": 0,
      "byteLength": 2268,
      "byteOffset": 12248
    },
    {
      "buffer": 0,
      "byteLength": 96,
      "byteOffset": 14516
    },
    {
      "buffer": 0,
      "byteLength": 96,
      "byteOffset": 14612
    },
    {
      "buffer": 0,
      "byteLength": 64,
      "byteOffset": 14708
    },
    {
      "buffer": 0,
      "byteLength": 4416,
      "byteOffset": 14772
    },
    {
      "buffer": 0,
      "byteLength": 4416,
      "byteOffset": 19188
    },
    {
      "buffer": 0,
      "byteLength": 2944,
      "byteOffset": 23604
    },
    {
      "buffer": 0,
      "byteLength": 2268,
      "byteOffset": 26548
    },
    {
      "buffer": 0,
      "byteLength": 96,
      "byteOffset": 28816
    },
    {
      "buffer": 0,
      "byteLength": 96,
      "byteOffset": 28912
    },
    {
      "buffer": 0,
      "byteLength": 64,
      "byteOffset": 29008
    },
    {
      "buffer": 0,
      "byteLength": 4464,
      "byteOffset": 29072
    },
    {
      "buffer": 0,
      "byteLength": 4464,
      "byteOffset": 33536
    },
    {
      "buffer": 0,
      "byteLength": 2976,
      "byteOffset": 38000
    },
    {
      "buffer": 0,
      "byteLength": 2268,
      "byteOffset": 40976
    },
    {
      "buffer": 0,
      "byteLength": 96,
      "byteOffset": 43244
    },
    {
      "buffer": 0,
      "byteLength": 96,
      "byteOffset": 43340
    },
    {
      "buffer": 0,
      "byteLength": 64,
      "byteOffset": 43436
    },
    {
      "buffer": 0,
      "byteLength": 4488,
      "byteOffset": 43500
    },
    {
      "buffer": 0,
      "byteLength": 4488,
      "byteOffset": 47988
    },
    {
      "buffer": 0,
      "byteLength": 2992,
      "byteOffset": 52476
    },
    {
      "buffer": 0,
      "byteLength": 2268,
      "byteOffset": 55468
    }
  ],
  "buffers": [
    {
      "byteLength": 57736,
      "uri": "data:application/octet-stream;base64,"
    }
  ]
}
