{
  "asset": {
    "generator": "Khronos glTF Blender I/O v0.9.36",
    "version": "2.0"
  },
  "scene": 0,
  "scenes": [
    {
      "name": "Scene",
      "nodes": [0, 1, 2, 3, 4, 5]
    }
  ],
  "nodes": [
    {
      "mesh": 0,
      "name": "toothpick20"
    },
    {
      "mesh": 1,
      "name": "plane50"
    },
    {
      "mesh": 2,
      "name": "plane60"
    },
    {
      "mesh": 3,
      "name": "plane30"
    },
    {
      "mesh": 4,
      "name": "toothpick10"
    },
    {
      "mesh": 5,
      "name": "toothpick15"
    }
  ],
  "meshes": [
    {
      "name": "Cylinder",
      "primitives": [
        {
          "attributes": {
            "POSITION": 0,
            "NORMAL": 1,
            "TEXCOORD_0": 2
          },
          "indices": 3
        }
      ]
    },
    {
      "name": "Plane.002",
      "primitives": [
        {
          "attributes": {
            "POSITION": 4,
            "NORMAL": 5,
            "TEXCOORD_0": 6
          },
          "indices": 7
        }
      ]
    },
    {
      "name": "Plane.005",
      "primitives": [
        {
          "attributes": {
            "POSITION": 8,
            "NORMAL": 9,
            "TEXCOORD_0": 10
          },
          "indices": 7
        }
      ]
    },
    {
      "name": "Plane.006",
      "primitives": [
        {
          "attributes": {
            "POSITION": 11,
            "NORMAL": 12,
            "TEXCOORD_0": 13
          },
          "indices": 7
        }
      ]
    },
    {
      "name": "Cylinder.003",
      "primitives": [
        {
          "attributes": {
            "POSITION": 14,
            "NORMAL": 15,
            "TEXCOORD_0": 16
          },
          "indices": 3
        }
      ]
    },
    {
      "name": "Cylinder.004",
      "primitives": [
        {
          "attributes": {
            "POSITION": 17,
            "NORMAL": 18,
            "TEXCOORD_0": 19
          },
          "indices": 3
        }
      ]
    }
  ],
  "accessors": [
    {
      "bufferView": 0,
      "componentType": 5126,
      "count": 130,
      "max": [0.019999999552965164, 2, 0.019999999552965164],
      "min": [-0.019999999552965164, -2, -0.019999999552965164],
      "type": "VEC3"
    },
    {
      "bufferView": 1,
      "componentType": 5126,
      "count": 130,
      "type": "VEC3"
    },
    {
      "bufferView": 2,
      "componentType": 5126,
      "count": 130,
      "type": "VEC2"
    },
    {
      "bufferView": 3,
      "componentType": 5123,
      "count": 378,
      "type": "SCALAR"
    },
    {
      "bufferView": 4,
      "componentType": 5126,
      "count": 30,
      "max": [1.06000554561615, 1.999998927116394, 0.022393714636564255],
      "min": [-0.02306913398206234, 1.3999989032745361, -0.022856203839182854],
      "type": "VEC3"
    },
    {
      "bufferView": 5,
      "componentType": 5126,
      "count": 30,
      "type": "VEC3"
    },
    {
      "bufferView": 6,
      "componentType": 5126,
      "count": 30,
      "type": "VEC2"
    },
    {
      "bufferView": 7,
      "componentType": 5123,
      "count": 84,
      "type": "SCALAR"
    },
    {
      "bufferView": 8,
      "componentType": 5126,
      "count": 30,
      "max": [1.2600055932998657, 1.999998927116394, 0.022393714636564255],
      "min": [-0.02306913398206234, 1.2999988794326782, -0.022856203839182854],
      "type": "VEC3"
    },
    {
      "bufferView": 9,
      "componentType": 5126,
      "count": 30,
      "type": "VEC3"
    },
    {
      "bufferView": 10,
      "componentType": 5126,
      "count": 30,
      "type": "VEC2"
    },
    {
      "bufferView": 11,
      "componentType": 5126,
      "count": 30,
      "max": [0.6600055694580078, 1.999998927116394, 0.022393714636564255],
      "min": [-0.02306913398206234, 1.3999989032745361, -0.022856203839182854],
      "type": "VEC3"
    },
    {
      "bufferView": 12,
      "componentType": 5126,
      "count": 30,
      "type": "VEC3"
    },
    {
      "bufferView": 13,
      "componentType": 5126,
      "count": 30,
      "type": "VEC2"
    },
    {
      "bufferView": 14,
      "componentType": 5126,
      "count": 130,
      "max": [0.019999999552965164, 2, 0.019999999552965164],
      "min": [-0.019999999552965164, 0, -0.019999999552965164],
      "type": "VEC3"
    },
    {
      "bufferView": 15,
      "componentType": 5126,
      "count": 130,
      "type": "VEC3"
    },
    {
      "bufferView": 16,
      "componentType": 5126,
      "count": 130,
      "type": "VEC2"
    },
    {
      "bufferView": 17,
      "componentType": 5126,
      "count": 130,
      "max": [0.019999999552965164, 2, 0.019999999552965164],
      "min": [-0.019999999552965164, -1, -0.019999999552965164],
      "type": "VEC3"
    },
    {
      "bufferView": 18,
      "componentType": 5126,
      "count": 130,
      "type": "VEC3"
    },
    {
      "bufferView": 19,
      "componentType": 5126,
      "count": 130,
      "type": "VEC2"
    }
  ],
  "bufferViews": [
    {
      "buffer": 0,
      "byteLength": 1560,
      "byteOffset": 0
    },
    {
      "buffer": 0,
      "byteLength": 1560,
      "byteOffset": 1560
    },
    {
      "buffer": 0,
      "byteLength": 1040,
      "byteOffset": 3120
    },
    {
      "buffer": 0,
      "byteLength": 756,
      "byteOffset": 4160
    },
    {
      "buffer": 0,
      "byteLength": 360,
      "byteOffset": 4916
    },
    {
      "buffer": 0,
      "byteLength": 360,
      "byteOffset": 5276
    },
    {
      "buffer": 0,
      "byteLength": 240,
      "byteOffset": 5636
    },
    {
      "buffer": 0,
      "byteLength": 168,
      "byteOffset": 5876
    },
    {
      "buffer": 0,
      "byteLength": 360,
      "byteOffset": 6044
    },
    {
      "buffer": 0,
      "byteLength": 360,
      "byteOffset": 6404
    },
    {
      "buffer": 0,
      "byteLength": 240,
      "byteOffset": 6764
    },
    {
      "buffer": 0,
      "byteLength": 360,
      "byteOffset": 7004
    },
    {
      "buffer": 0,
      "byteLength": 360,
      "byteOffset": 7364
    },
    {
      "buffer": 0,
      "byteLength": 240,
      "byteOffset": 7724
    },
    {
      "buffer": 0,
      "byteLength": 1560,
      "byteOffset": 7964
    },
    {
      "buffer": 0,
      "byteLength": 1560,
      "byteOffset": 9524
    },
    {
      "buffer": 0,
      "byteLength": 1040,
      "byteOffset": 11084
    },
    {
      "buffer": 0,
      "byteLength": 1560,
      "byteOffset": 12124
    },
    {
      "buffer": 0,
      "byteLength": 1560,
      "byteOffset": 13684
    },
    {
      "buffer": 0,
      "byteLength": 1040,
      "byteOffset": 15244
    }
  ],
  "buffers": [
    {
      "byteLength": 16284,
      "uri": "data:application/octet-stream;base64,"
    }
  ]
}
