{
  "asset": {
    "generator": "Khronos glTF Blender I/O v1.4.40",
    "version": "2.0"
  },
  "scene": 0,
  "scenes": [
    {
      "name": "Scene",
      "nodes": [0, 1, 2, 3, 4, 5]
    }
  ],
  "nodes": [
    {
      "mesh": 0,
      "name": "baner120x200"
    },
    {
      "mesh": 1,
      "name": "baner60x160"
    },
    {
      "mesh": 2,
      "name": "baner80x180"
    },
    {
      "mesh": 3,
      "name": "statyw120x200"
    },
    {
      "mesh": 4,
      "name": "statyw60x160"
    },
    {
      "mesh": 5,
      "name": "statyw80x180"
    }
  ],
  "meshes": [
    {
      "name": "Plane.009",
      "primitives": [
        {
          "attributes": {
            "POSITION": 0,
            "NORMAL": 1,
            "TEXCOORD_0": 2
          },
          "indices": 3
        }
      ]
    },
    {
      "name": "Plane.010",
      "primitives": [
        {
          "attributes": {
            "POSITION": 4,
            "NORMAL": 5,
            "TEXCOORD_0": 6
          },
          "indices": 3
        }
      ]
    },
    {
      "name": "Plane.008",
      "primitives": [
        {
          "attributes": {
            "POSITION": 7,
            "NORMAL": 8,
            "TEXCOORD_0": 9
          },
          "indices": 3
        }
      ]
    },
    {
      "name": "Cube.012",
      "primitives": [
        {
          "attributes": {
            "POSITION": 10,
            "NORMAL": 11,
            "TEXCOORD_0": 12
          },
          "indices": 13
        }
      ]
    },
    {
      "name": "Cylinder.052",
      "primitives": [
        {
          "attributes": {
            "POSITION": 14,
            "NORMAL": 15,
            "TEXCOORD_0": 16
          },
          "indices": 17
        }
      ]
    },
    {
      "name": "Cube.011",
      "primitives": [
        {
          "attributes": {
            "POSITION": 18,
            "NORMAL": 19,
            "TEXCOORD_0": 20
          },
          "indices": 21
        }
      ]
    }
  ],
  "accessors": [
    {
      "bufferView": 0,
      "componentType": 5126,
      "count": 4,
      "max": [1.2000000476837158, 2, 8.742277657347586e-8],
      "min": [-1.2000000476837158, -2, -8.742277657347586e-8],
      "type": "VEC3"
    },
    {
      "bufferView": 1,
      "componentType": 5126,
      "count": 4,
      "type": "VEC3"
    },
    {
      "bufferView": 2,
      "componentType": 5126,
      "count": 4,
      "type": "VEC2"
    },
    {
      "bufferView": 3,
      "componentType": 5123,
      "count": 6,
      "type": "SCALAR"
    },
    {
      "bufferView": 4,
      "componentType": 5126,
      "count": 4,
      "max": [0.6000000238418579, 1.5999999046325684, 6.993822410095163e-8],
      "min": [-0.6000000238418579, -1.6000001430511475, -6.993822410095163e-8],
      "type": "VEC3"
    },
    {
      "bufferView": 5,
      "componentType": 5126,
      "count": 4,
      "type": "VEC3"
    },
    {
      "bufferView": 6,
      "componentType": 5126,
      "count": 4,
      "type": "VEC2"
    },
    {
      "bufferView": 7,
      "componentType": 5126,
      "count": 4,
      "max": [0.800000011920929, 1.7999999523162842, 7.868050033721374e-8],
      "min": [-0.800000011920929, -1.7999999523162842, -7.868050033721374e-8],
      "type": "VEC3"
    },
    {
      "bufferView": 8,
      "componentType": 5126,
      "count": 4,
      "type": "VEC3"
    },
    {
      "bufferView": 9,
      "componentType": 5126,
      "count": 4,
      "type": "VEC2"
    },
    {
      "bufferView": 10,
      "componentType": 5126,
      "count": 3072,
      "max": [1.2064357995986938, 2.055110216140747, 1.0359768867492676],
      "min": [-1.2064353227615356, -2.063722610473633, -0.02472485601902008],
      "type": "VEC3"
    },
    {
      "bufferView": 11,
      "componentType": 5126,
      "count": 3072,
      "type": "VEC3"
    },
    {
      "bufferView": 12,
      "componentType": 5126,
      "count": 3072,
      "type": "VEC2"
    },
    {
      "bufferView": 13,
      "componentType": 5123,
      "count": 14814,
      "type": "SCALAR"
    },
    {
      "bufferView": 14,
      "componentType": 5126,
      "count": 2518,
      "max": [0.6129758954048157, 1.6648447513580322, 1.0369981527328491],
      "min": [-0.6129757761955261, -1.673703908920288, -0.02472485601902008],
      "type": "VEC3"
    },
    {
      "bufferView": 15,
      "componentType": 5126,
      "count": 2518,
      "type": "VEC3"
    },
    {
      "bufferView": 16,
      "componentType": 5126,
      "count": 2518,
      "type": "VEC2"
    },
    {
      "bufferView": 17,
      "componentType": 5123,
      "count": 12048,
      "type": "SCALAR"
    },
    {
      "bufferView": 18,
      "componentType": 5126,
      "count": 2458,
      "max": [0.8136221170425415, 1.8694565296173096, 1.029531478881836],
      "min": [-0.8136221170425415, -1.873235821723938, -0.02472485601902008],
      "type": "VEC3"
    },
    {
      "bufferView": 19,
      "componentType": 5126,
      "count": 2458,
      "type": "VEC3"
    },
    {
      "bufferView": 20,
      "componentType": 5126,
      "count": 2458,
      "type": "VEC2"
    },
    {
      "bufferView": 21,
      "componentType": 5123,
      "count": 11898,
      "type": "SCALAR"
    }
  ],
  "bufferViews": [
    {
      "buffer": 0,
      "byteLength": 48,
      "byteOffset": 0
    },
    {
      "buffer": 0,
      "byteLength": 48,
      "byteOffset": 48
    },
    {
      "buffer": 0,
      "byteLength": 32,
      "byteOffset": 96
    },
    {
      "buffer": 0,
      "byteLength": 12,
      "byteOffset": 128
    },
    {
      "buffer": 0,
      "byteLength": 48,
      "byteOffset": 140
    },
    {
      "buffer": 0,
      "byteLength": 48,
      "byteOffset": 188
    },
    {
      "buffer": 0,
      "byteLength": 32,
      "byteOffset": 236
    },
    {
      "buffer": 0,
      "byteLength": 48,
      "byteOffset": 268
    },
    {
      "buffer": 0,
      "byteLength": 48,
      "byteOffset": 316
    },
    {
      "buffer": 0,
      "byteLength": 32,
      "byteOffset": 364
    },
    {
      "buffer": 0,
      "byteLength": 36864,
      "byteOffset": 396
    },
    {
      "buffer": 0,
      "byteLength": 36864,
      "byteOffset": 37260
    },
    {
      "buffer": 0,
      "byteLength": 24576,
      "byteOffset": 74124
    },
    {
      "buffer": 0,
      "byteLength": 29628,
      "byteOffset": 98700
    },
    {
      "buffer": 0,
      "byteLength": 30216,
      "byteOffset": 128328
    },
    {
      "buffer": 0,
      "byteLength": 30216,
      "byteOffset": 158544
    },
    {
      "buffer": 0,
      "byteLength": 20144,
      "byteOffset": 188760
    },
    {
      "buffer": 0,
      "byteLength": 24096,
      "byteOffset": 208904
    },
    {
      "buffer": 0,
      "byteLength": 29496,
      "byteOffset": 233000
    },
    {
      "buffer": 0,
      "byteLength": 29496,
      "byteOffset": 262496
    },
    {
      "buffer": 0,
      "byteLength": 19664,
      "byteOffset": 291992
    },
    {
      "buffer": 0,
      "byteLength": 23796,
      "byteOffset": 311656
    }
  ],
  "buffers": [
    {
      "byteLength": 335452,
      "uri": "data:application/octet-stream;base64,"
    }
  ]
}
